<svg xmlns="http://www.w3.org/2000/svg" width="28" role="presentation" height="28" viewBox="0 0 28 28" fill="none"><path fill-rule="evenodd" clip-rule="evenodd" d="M16.4484 8.75572V12.7511L14.2077 18.6529V14.7827C14.0344 14.8319 13.865 14.8711 13.6995 14.9003C13.1913 14.9927 12.6369 15.0389 12.0363 15.0389C11.7821 15.0389 11.5061 15.0244 11.2084 14.9954C11.2324 15.0631 11.2542 15.1315 11.274 15.2006C11.3818 15.5086 11.4357 15.8474 11.4357 16.217C11.4357 16.9254 11.274 17.526 10.9506 18.0188C10.6272 18.5116 10.1806 18.8812 9.61079 19.1276C9.04099 19.374 8.37879 19.4972 7.62419 19.4972C6.71559 19.4972 5.87629 19.2893 5.10629 18.8735C4.33629 18.4577 3.59709 17.7801 2.88869 16.8407C2.3454 16.0922 1.80684 15.1496 1.27302 14.013C1.02377 13.4823 1.29389 12.8591 1.84393 12.6561C2.36221 12.4648 2.93633 12.72 3.16451 13.2231C3.48829 13.937 3.81985 14.5731 4.15919 15.1313C4.63659 15.9167 5.14479 16.5173 5.68379 16.9331C6.23819 17.3335 6.82339 17.5337 7.43939 17.5337C7.99379 17.5337 8.43269 17.4105 8.75609 17.1641C9.07949 16.9023 9.24119 16.4942 9.24119 15.9398C9.24119 15.2314 9.01019 14.6231 8.54819 14.1149C8.34514 13.8769 8.11345 13.6468 7.8531 13.4246C7.67021 13.4616 7.47973 13.4924 7.28166 13.5169C6.77953 13.5789 6.35205 13.1828 6.32088 12.6778C6.28827 12.1496 6.70192 11.7123 7.22399 11.6256C7.72706 11.5421 8.10686 11.4017 8.36339 11.2043C8.77919 10.8963 8.98709 10.4728 8.98709 9.93382C8.98709 9.41022 8.80999 9.04062 8.45579 8.82502C8.11699 8.60942 7.72429 8.50162 7.27769 8.50162C6.72329 8.50162 6.21509 8.57862 5.75309 8.73262C5.61446 8.77565 5.47361 8.82386 5.33052 8.87727C4.79338 9.07778 4.17355 8.83533 3.97984 8.29569C3.81799 7.84482 4.01428 7.34095 4.46219 7.17107C4.70213 7.08006 4.96303 6.99228 5.24489 6.90772C5.87629 6.70752 6.57699 6.60742 7.34699 6.60742C8.59439 6.60742 9.54149 6.92312 10.1883 7.55452C10.8505 8.17052 11.1816 8.94822 11.1816 9.88762C11.1816 10.5806 10.9968 11.2043 10.6272 11.7587C10.3981 12.1073 10.095 12.4108 9.7178 12.6692C9.83715 12.7838 9.96063 12.9089 10.0883 13.0442C10.1595 13.055 10.2313 13.0654 10.3038 13.0754C10.7504 13.1216 11.2278 13.1447 11.736 13.1447C12.4444 13.1447 13.0604 13.0908 13.584 12.983C13.7835 12.9374 13.9914 12.8823 14.2077 12.8178V8.75572H13.5493C13.0199 8.75572 12.5907 8.32652 12.5907 7.79707C12.5907 7.26762 13.0199 6.83842 13.5493 6.83842H17.3135C17.9799 6.83842 18.4398 7.50604 18.2022 8.12871C18.0637 8.49178 17.7182 8.73408 17.3297 8.7407L16.4484 8.75572ZM21.4413 7.01316C21.5928 7.1154 21.7099 7.26098 21.7773 7.43085L26.7714 20.1251C26.8145 20.2381 26.836 20.3582 26.835 20.4792C26.8418 20.6027 26.8232 20.7263 26.7805 20.8424C26.7309 20.9522 26.6599 21.0509 26.5717 21.133C26.488 21.2147 26.3893 21.2794 26.2811 21.3237C26.168 21.3667 26.0479 21.3883 25.927 21.3872C25.8022 21.3882 25.6785 21.3635 25.5638 21.3146C25.454 21.2649 25.3552 21.194 25.2732 21.1058C25.1915 21.0221 25.1268 20.9234 25.0825 20.8152L23.5207 16.8471H18.3449L16.774 20.8243C16.682 21.0452 16.5102 21.2235 16.2928 21.3237C16.182 21.3699 16.0632 21.3937 15.9432 21.3937C15.8232 21.3937 15.7044 21.3699 15.5936 21.3237C15.3726 21.2316 15.1943 21.0598 15.0942 20.8424C15.048 20.7317 15.0242 20.6128 15.0242 20.4928C15.0242 20.3728 15.048 20.254 15.0942 20.1432L20.0883 7.43085C20.1558 7.26098 20.2728 7.1154 20.4243 7.01316C20.5745 6.91166 20.7516 6.85742 20.9328 6.85742C21.1141 6.85742 21.2912 6.91166 21.4413 7.01316ZM20.9328 10.2457L19.0532 15.031H22.8124L20.9328 10.2457Z" fill="black" style="cursor: none;"></path></svg>