<?xml version="1.0" encoding="utf-8"?>
<!-- Generator: Adobe Illustrator 27.5.0, SVG Export Plug-In . SVG Version: 6.00 Build 0)  -->
<svg version="1.1" xmlns="http://www.w3.org/2000/svg" xmlns:xlink="http://www.w3.org/1999/xlink" x="0px" y="0px"
	 viewBox="0 0 500 500" style="enable-background:new 0 0 500 500;" xml:space="preserve">
<g id="BACKGROUND">
	<rect style="fill:#6AE8C1;" width="500" height="500"/>
</g>
<g id="OBJECTS">
	<g>
		<g>
			<g>
				<path style="fill:#9CFFE0;" d="M447.169,336.616c1.853-10.938,2.831-22.173,2.831-33.639c0-110.457-89.543-200-200-200
					s-200,89.543-200,200c0,11.465,0.979,22.701,2.831,33.639H447.169z"/>
				<g>
					<g>
						<path style="fill:#DF264F;" d="M448.283,333.853c-0.688,35.826-89.197,64.801-198.277,64.801
							c-14.854,0-29.324-0.544-43.245-1.553c-88.322-6.467-154.449-32.304-155.044-63.248H448.283z"/>
						<path style="fill:#F9535F;" d="M361.805,333.853c-0.607,30.944-66.722,56.781-155.044,63.248
							c-88.322-6.467-154.449-32.304-155.044-63.248H361.805z"/>
						<ellipse style="fill:#FB7957;" cx="250" cy="333.373" rx="198.302" ry="33.775"/>
					</g>
				</g>
			</g>
		</g>
		<g>
			<path style="fill:#FFFFFF;" d="M237.793,340.12L237.793,340.12c-1.608,0-2.912-1.304-2.912-2.912v-57.441h5.823v57.441
				C240.705,338.816,239.401,340.12,237.793,340.12z"/>
			<path style="fill:#FFFFFF;" d="M248.697,342.241c-0.211-5.847-5.005-10.526-10.904-10.526s-10.693,4.679-10.904,10.526H248.697z"
				/>
			<circle style="fill:#F2EEE5;" cx="237.793" cy="269.855" r="18.207"/>
			<g>
				<path style="fill:#FFFFFF;" d="M357.592,247.967h-230.83c-1.4,0-2.535-1.135-2.535-2.535V108.645c0-1.4,1.135-2.535,2.535-2.535
					h230.83c1.4,0,2.535,1.135,2.535,2.535v136.787C360.127,246.832,358.992,247.967,357.592,247.967z"/>
				
					<rect x="180.61" y="64.844" transform="matrix(-1.836970e-16 1 -1 -1.836970e-16 418.6348 -64.5581)" style="fill:#90C4FF;" width="121.973" height="224.389"/>
				<g>
					<path style="fill:#FDB636;" d="M257.632,160.444c-0.54,1.532-1.917,2.443-3.075,2.035c-1.159-0.408-1.66-1.981-1.121-3.513
						c0.54-1.532,1.917-2.443,3.075-2.035C257.671,157.339,258.172,158.912,257.632,160.444z"/>
					<path style="fill:#FDB636;" d="M225.758,160.444c0.54,1.532,1.917,2.443,3.075,2.035c1.159-0.408,1.66-1.981,1.121-3.513
						c-0.54-1.532-1.917-2.443-3.075-2.035C225.72,157.339,225.218,158.912,225.758,160.444z"/>
				</g>
				<g>
					<path style="fill:#FDB636;" d="M250.947,183.454l1.381-2.889l0,0c4.946,0.935,8.846,4.77,9.819,9.708
						c1.478,7.507,2.879,19.974,1.158,36.756h-5.782l-0.644-23.232l-4.572-9.515L250.947,183.454z"/>
					<g>
						<path style="fill:#FDB636;" d="M232.443,183.454l-1.381-2.889l0,0c-4.946,0.935-8.846,4.77-9.819,9.708
							c-1.479,7.507-2.879,19.974-1.158,36.756h5.782l0.644-23.232l4.572-9.515L232.443,183.454z"/>
					</g>
					<path style="fill:#FB7246;" d="M253.236,189.956c0.406-2.986,0.838-5.206,1.194-6.758c0.31-1.351-0.715-2.634-2.102-2.634
						h-9.66h-1.945h-9.661c-1.386,0-2.412,1.283-2.102,2.634c0.356,1.552,0.788,3.772,1.194,6.758
						c0.924,6.797-4.727,8.65-4.727,13.346c0,7.909,5.162,10.01,5.162,10.01v13.717h10.133h1.945h10.133v-13.717
						c0,0,5.162-2.101,5.162-10.01C257.963,198.607,252.311,196.753,253.236,189.956z"/>
				</g>
				<g>
					<path style="fill:#2C9E7B;" d="M363.435,110.873H119.758c-2.631,0-4.763-2.133-4.763-4.763v0c0-2.631,2.133-4.763,4.763-4.763
						h243.677c2.631,0,4.763,2.133,4.763,4.763v0C368.198,108.741,366.066,110.873,363.435,110.873z"/>
					<path style="fill:#2C9E7B;" d="M363.435,252.73H119.758c-2.631,0-4.763-2.132-4.763-4.763l0,0c0-2.631,2.133-4.763,4.763-4.763
						h243.677c2.631,0,4.763,2.133,4.763,4.763l0,0C368.198,250.598,366.066,252.73,363.435,252.73z"/>
				</g>
				
					<rect x="233.233" y="117.466" transform="matrix(-1.836970e-16 1 -1 -1.836970e-16 471.2572 -11.9356)" style="fill:#5A4FD1;" width="16.728" height="224.389"/>
				<g>
					<circle style="fill:#FFFFFF;" cx="221.453" cy="229.661" r="5.241"/>
					<circle style="fill:#FFFFFF;" cx="241.596" cy="229.661" r="5.241"/>
					<path style="fill:#FFFFFF;" d="M266.981,229.661c0,2.895-2.346,5.241-5.241,5.241c-2.895,0-5.241-2.347-5.241-5.241
						c0-2.895,2.347-5.241,5.241-5.241C264.634,224.419,266.981,226.766,266.981,229.661z"/>
				</g>
				<path style="fill:#FDB636;" d="M255.658,155.848c0,7.711-6.251,19.403-13.963,19.403c-7.711,0-13.963-11.691-13.963-19.403
					c0-7.712,6.251-13.963,13.963-13.963C249.407,141.885,255.658,148.136,255.658,155.848z"/>
				<path style="fill:#FDB636;" d="M241.695,183.454L241.695,183.454c-1.263,0-2.286-1.024-2.286-2.286v-7.4h4.572v7.4
					C243.981,182.43,242.958,183.454,241.695,183.454z"/>
				<path style="fill:#322C74;" d="M247.131,135.335c0,0,1.236,13.964-14.335,14.582c0,0-4.885,3.447-4.543,10.126
					c0,0-3.407-4.125-2.565-11.528c0.611-5.38,3.367-10.368,7.893-13.34C237.791,132.413,242.921,131.602,247.131,135.335z"/>
				<path style="fill:#322C74;" d="M244.042,142.75c0,0,2.348,8.032,9.515,11.987c0,0,2.367,2.202,1.704,4.739
					c0,0,3.363-6.84-0.592-15.738c-2.719-5.561-7.538-8.403-7.538-8.403l-3.089,1.977V142.75z"/>
				<path style="fill:#322C74;" d="M252.321,130.951c0,3.959-3.209,7.168-7.167,7.168c-3.958,0-7.167-3.209-7.167-7.168
					c0-3.958,3.209-7.167,7.167-7.167C249.112,123.784,252.321,126.993,252.321,130.951z"/>
			</g>
			<g>
				<g>
					<path style="fill:#FFFFFF;" d="M330.396,338.074L330.396,338.074c0.757,0,1.371-0.614,1.371-1.371v-47.976h-2.743v47.976
						C329.024,337.46,329.638,338.074,330.396,338.074z"/>
					<path style="fill:#FFFFFF;" d="M292.332,338.074L292.332,338.074c0.757,0,1.372-0.614,1.372-1.371v-47.976h-2.743v47.976
						C290.961,337.46,291.575,338.074,292.332,338.074z"/>
				</g>
				<g>
					<path style="fill:#F2EEE5;" d="M327.004,325.276L327.004,325.276c0.622,0,1.127-0.505,1.127-1.127v-39.425h-2.254v39.425
						C325.876,324.772,326.381,325.276,327.004,325.276z"/>
					<path style="fill:#F2EEE5;" d="M295.724,325.276L295.724,325.276c0.622,0,1.127-0.505,1.127-1.127v-39.425h-2.254v39.425
						C294.597,324.772,295.102,325.276,295.724,325.276z"/>
				</g>
				<g>
					<path style="fill:#FFFFFF;" d="M324.487,281.026h7.798c1.801,0,3.266-1.464,3.266-3.266v-13.222
						c0-0.695-0.563-1.258-1.258-1.258s-1.258,0.563-1.258,1.258v13.222c0,0.413-0.337,0.75-0.749,0.75h-7.798
						c-0.695,0-1.258,0.563-1.258,1.258C323.229,280.464,323.792,281.026,324.487,281.026z"/>
				</g>
				<path style="fill:#C94F28;" d="M335.216,271.017L335.216,271.017c2.197,0,3.978-1.781,3.978-3.978v-43.55
					c0-2.197-1.781-3.978-3.978-3.978l0,0c-2.197,0-3.978,1.781-3.978,3.978v43.55C331.238,269.235,333.019,271.017,335.216,271.017
					z"/>
				<path style="fill:#C94F28;" d="M339.194,275.957c-1.826-0.418-4.459-1.297-7.018-6.373l3.04-50.073
					c1.162-0.082,2.801,0.843,4.633,2.176L339.194,275.957z"/>
				<g>
					<path style="fill:#FFFFFF;" d="M328.131,288.64h7.798c1.801,0,3.266-1.464,3.266-3.265v-13.222
						c0-0.695-0.563-1.258-1.258-1.258c-0.695,0-1.258,0.563-1.258,1.258v13.222c0,0.413-0.337,0.749-0.749,0.749h-7.798
						c-0.695,0-1.258,0.563-1.258,1.258S327.436,288.64,328.131,288.64z"/>
				</g>
				<path style="fill:#FFE2D9;" d="M339.194,275.957L339.194,275.957c2.197,0,3.978-1.781,3.978-3.978v-46.372
					c0-2.197-1.781-3.978-3.978-3.978l0,0c-2.197,0-3.978,1.781-3.978,3.978v46.372
					C335.216,274.176,336.997,275.957,339.194,275.957z"/>
				<path style="fill:#FB7246;" d="M339.194,273.44c0.806,0,1.462-0.656,1.462-1.462v-46.372c0-0.806-0.656-1.462-1.462-1.462
					c-0.806,0-1.462,0.656-1.462,1.462v46.372C337.732,272.784,338.388,273.44,339.194,273.44z"/>
				<path style="fill:#FB7246;" d="M293.001,278.742h36.726c2.134,0,3.864-1.73,3.864-3.864l0,0c0-2.134-1.73-3.864-3.864-3.864
					h-36.726c-2.134,0-3.864,1.73-3.864,3.864l0,0C289.137,277.012,290.867,278.742,293.001,278.742z"/>
				
					<rect x="289.137" y="274.878" transform="matrix(-1 -1.224647e-16 1.224647e-16 -1 622.7281 562.26)" style="fill:#FB7246;" width="44.454" height="12.505"/>
				<path style="fill:#FFE2D9;" d="M293.001,291.247h36.726c2.134,0,3.864-1.73,3.864-3.864l0,0c0-2.134-1.73-3.864-3.864-3.864
					h-36.726c-2.134,0-3.864,1.73-3.864,3.864l0,0C289.137,289.517,290.867,291.247,293.001,291.247z"/>
				<path style="fill:#C94F28;" d="M329.727,288.731c0.743,0,1.348-0.605,1.348-1.349c0-0.743-0.604-1.348-1.348-1.348h-36.726
					c-0.743,0-1.348,0.604-1.348,1.348c0,0.743,0.604,1.349,1.348,1.349H329.727z"/>
			</g>
			<g>
				<g>
					<g>
						<path style="fill:#322C74;" d="M281.376,319.176c0.118,1.118-0.764,2.091-1.891,2.091h-12.566
							c-0.491,0-0.682-0.646-0.264-0.918l3.728-2.373l4.846-3.073l0.791-3.073l4.664,0.564l0.354,3.519L281.376,319.176z"/>
						<path style="fill:#FDB636;" d="M281.039,315.912c-1.573,1.082-3.546,1.955-5.592,2.509c-2.018,0.546-3.782,0.136-5.064-0.445
							l4.846-3.073l0.791-3.073l4.664,0.564L281.039,315.912z"/>
					</g>
					<path style="fill:#322C74;" d="M328.757,262.502c0,0-1.295,16.821-14.854,15.23c-13.56-1.591-29.603-5.683-29.603-5.683
						s0.665,14.094-1.875,25.914c-1.918,8.925-0.939,13.314-0.345,14.929c0.135,0.367-0.13,0.756-0.521,0.756h-6.629
						c-0.284,0-0.523-0.214-0.555-0.496l-5.628-50.649H328.757z"/>
				</g>
				<g>
					<g>
						<path style="fill:#5A4FD1;" d="M286.312,325.603c0.118,1.118-0.764,2.091-1.891,2.091h-12.566
							c-0.491,0-0.682-0.646-0.264-0.918l3.728-2.373l4.846-3.073l0.791-3.073l4.665,0.564l0.355,3.519L286.312,325.603z"/>
						<path style="fill:#FDB636;" d="M285.976,322.338c-1.573,1.082-3.546,1.955-5.592,2.51c-2.019,0.546-3.783,0.136-5.065-0.446
							l4.846-3.073l0.791-3.073l4.665,0.564L285.976,322.338z"/>
					</g>
					<path style="fill:#5A4FD1;" d="M333.694,268.928c0,0-1.295,16.821-14.855,15.23c-13.56-1.591-29.603-5.683-29.603-5.683
						s0.665,14.094-1.875,25.914c-1.918,8.925-0.94,13.314-0.345,14.929c0.135,0.368-0.13,0.756-0.521,0.756h-6.629
						c-0.284,0-0.523-0.214-0.555-0.497l-5.628-50.649H333.694z"/>
				</g>
				<g>
					<path style="fill:#FDB636;" d="M294.368,185.352l2.228,9.568c0.201,0.862-0.252,1.743-1.07,2.081l-1.036,0.429
						c-0.716,0.296-0.716,1.31,0,1.606l1.614,0.668c0.502,0.208,0.851,0.665,0.917,1.205c0.258,2.103,1.351,7.357,5.833,7.478
						c5.607,0.152,9.547-10.153,9.547-10.153l-5.304-12.881H294.368z"/>
					<polygon style="fill:#FDB636;" points="307.253,204.02 311.038,210.454 317.724,205.053 309.139,200.052 					"/>
					<path style="fill:#FFFFFF;" d="M314.069,205.253l-4.246,3.135c0,0,1.982,3.993-0.902,8.891
						c-2.884,4.898-10.764,8.232-8.946,16.415c0.587,2.674,2.479,4.029,4.444,4.705c3.171,1.09,5.328,4.031,5.328,7.383v14.579
						l22.658-0.767c0,0,7.403-35.747-3.648-51.206L314.069,205.253z"/>
					<path style="fill:#FDB636;" d="M311.95,249.311c0,0,8.367-34.167,14.307-33.742c5.94,0.424,4.575,17.407-5.608,35.652
						L311.95,249.311z"/>
					<path style="fill:#322C74;" d="M294.299,181.552c-1.568,0.576-2.306,2.417-1.496,3.878c0.92,1.66,2.665,3.622,5.96,4.771
						c3.182,1.212,6.213,0.606,5.91,8.032c-0.152,3.183,0.303,5.456,5.456,6.971c3.485,1.061,4.395,4.243,2.273,9.396
						c-2.122,5.152-4.395,8.941,0,11.366c4.395,2.425,8.486-7.88,11.669-9.547c3.182-1.667,12.275-7.274,8.941-12.881
						c-3.334-5.607-9.85-6.062-11.063-11.517c-1.03-4.637-0.2-12.888-9.42-14.7c-2.991-0.588-6.091-0.227-8.952,0.824
						L294.299,181.552z"/>
				</g>
			</g>
			<g>
				<path style="fill:#FD9D36;" d="M159.041,352.693c-4.552-0.25-14.059-1.315-17.203-5.788l-0.563,2.762l-1.782-0.363l1.777-8.722
					c0.218-1.069,0.751-2.046,1.536-2.805l0.242-0.229l0.546-0.538c0.832-0.805,1.389-1.851,1.575-2.992l1.077-6.471l5.934,2.759
					l-2.026,9.943c0,0,0.289,3.817,5.204,8.252c1.098,0.985,2.438,2.018,4.049,3.033
					C159.959,351.877,159.683,352.731,159.041,352.693z"/>
				<path style="fill:#1E1A45;" d="M159.041,352.693c-4.552-0.25-14.059-1.315-17.203-5.788l-0.563,2.762l-1.782-0.363l1.777-8.722
					c0.218-1.069,0.751-2.046,1.536-2.805l0.242-0.229c0.472,4.244,2.618,13.478,12.309,10.952c1.098,0.985,2.438,2.018,4.049,3.033
					C159.959,351.877,159.683,352.731,159.041,352.693z"/>
				<path style="fill:#1E1A45;" d="M120.839,265.48l45.313,10.932c2.582,0.623,4.088,3.311,3.272,5.838l-16.424,50.848
					c0,0-5.052-0.256-8.28-3.388c0,0,3.779-34.492,8.595-42.945c0,0-24.589,0.736-33.524-2.476L120.839,265.48z"/>
			</g>
			<g>
				<g>
					<path style="fill:#FFFFFF;" d="M95.355,355.081L95.355,355.081c-0.757,0-1.372-0.614-1.372-1.372v-47.976h2.743v47.976
						C96.727,354.467,96.113,355.081,95.355,355.081z"/>
					<path style="fill:#FFFFFF;" d="M133.419,355.081L133.419,355.081c-0.757,0-1.372-0.614-1.372-1.372v-47.976h2.743v47.976
						C134.79,354.467,134.176,355.081,133.419,355.081z"/>
				</g>
				<g>
					<path style="fill:#F2EEE5;" d="M98.747,342.283L98.747,342.283c-0.622,0-1.127-0.505-1.127-1.127v-39.425h2.254v39.425
						C99.875,341.778,99.37,342.283,98.747,342.283z"/>
					<path style="fill:#F2EEE5;" d="M130.027,342.283L130.027,342.283c-0.623,0-1.127-0.505-1.127-1.127v-39.425h2.254v39.425
						C131.154,341.778,130.649,342.283,130.027,342.283z"/>
				</g>
				<g>
					<path style="fill:#FFFFFF;" d="M101.264,298.033h-7.798c-1.801,0-3.266-1.464-3.266-3.266v-13.222
						c0-0.695,0.563-1.258,1.258-1.258c0.695,0,1.258,0.563,1.258,1.258v13.222c0,0.413,0.337,0.75,0.75,0.75h7.798
						c0.695,0,1.258,0.563,1.258,1.258S101.959,298.033,101.264,298.033z"/>
				</g>
				<path style="fill:#C94F28;" d="M90.535,288.023L90.535,288.023c-2.197,0-3.978-1.781-3.978-3.978v-43.55
					c0-2.197,1.781-3.978,3.978-3.978l0,0c2.197,0,3.978,1.781,3.978,3.978v43.55C94.513,286.242,92.732,288.023,90.535,288.023z"/>
				<path style="fill:#C94F28;" d="M86.557,292.964c1.826-0.418,4.459-1.297,7.019-6.373l-3.041-50.073
					c-1.162-0.082-2.801,0.843-4.633,2.176L86.557,292.964z"/>
				<g>
					<path style="fill:#FFFFFF;" d="M97.62,305.647h-7.798c-1.801,0-3.266-1.465-3.266-3.266V289.16
						c0-0.695,0.563-1.258,1.258-1.258c0.695,0,1.258,0.563,1.258,1.258v13.222c0,0.413,0.337,0.749,0.75,0.749h7.798
						c0.695,0,1.258,0.563,1.258,1.258S98.315,305.647,97.62,305.647z"/>
				</g>
				<path style="fill:#FFE2D9;" d="M86.557,292.964L86.557,292.964c-2.197,0-3.978-1.781-3.978-3.978v-46.372
					c0-2.197,1.781-3.978,3.978-3.978l0,0c2.197,0,3.978,1.781,3.978,3.978v46.372C90.535,291.182,88.754,292.964,86.557,292.964z"
					/>
				<path style="fill:#FB7246;" d="M86.557,290.447c-0.806,0-1.462-0.656-1.462-1.462v-46.372c0-0.806,0.656-1.462,1.462-1.462
					s1.462,0.656,1.462,1.462v46.372C88.019,289.791,87.363,290.447,86.557,290.447z"/>
				<path style="fill:#FB7246;" d="M132.75,295.749H96.024c-2.134,0-3.864-1.73-3.864-3.864l0,0c0-2.134,1.73-3.864,3.864-3.864
					h36.726c2.134,0,3.864,1.73,3.864,3.864l0,0C136.614,294.019,134.884,295.749,132.75,295.749z"/>
				<rect x="92.16" y="291.885" style="fill:#FB7246;" width="44.455" height="12.505"/>
				<path style="fill:#FFE2D9;" d="M132.75,308.254H96.024c-2.134,0-3.864-1.73-3.864-3.864l0,0c0-2.134,1.73-3.864,3.864-3.864
					h36.726c2.134,0,3.864,1.73,3.864,3.864l0,0C136.614,306.524,134.884,308.254,132.75,308.254z"/>
				<path style="fill:#C94F28;" d="M96.024,305.738c-0.743,0-1.348-0.606-1.348-1.349c0-0.743,0.605-1.348,1.348-1.348h36.726
					c0.743,0,1.348,0.604,1.348,1.348c0,0.743-0.604,1.349-1.348,1.349H96.024z"/>
			</g>
			<g>
				<g>
					<path style="fill:#FFFFFF;" d="M385.078,355.081L385.078,355.081c0.758,0,1.372-0.614,1.372-1.372v-47.976h-2.743v47.976
						C383.706,354.467,384.32,355.081,385.078,355.081z"/>
					<path style="fill:#FFFFFF;" d="M347.014,355.081L347.014,355.081c0.758,0,1.372-0.614,1.372-1.372v-47.976h-2.743v47.976
						C345.643,354.467,346.257,355.081,347.014,355.081z"/>
				</g>
				<g>
					<path style="fill:#F2EEE5;" d="M381.686,342.283L381.686,342.283c0.623,0,1.127-0.505,1.127-1.127v-39.425h-2.254v39.425
						C380.558,341.778,381.063,342.283,381.686,342.283z"/>
					<path style="fill:#F2EEE5;" d="M350.406,342.283L350.406,342.283c0.622,0,1.127-0.505,1.127-1.127v-39.425h-2.254v39.425
						C349.279,341.778,349.784,342.283,350.406,342.283z"/>
				</g>
				<g>
					<path style="fill:#FFFFFF;" d="M379.169,298.033h7.798c1.801,0,3.266-1.464,3.266-3.266v-13.222
						c0-0.695-0.563-1.258-1.258-1.258s-1.258,0.563-1.258,1.258v13.222c0,0.413-0.337,0.75-0.75,0.75h-7.798
						c-0.695,0-1.258,0.563-1.258,1.258S378.474,298.033,379.169,298.033z"/>
				</g>
				<path style="fill:#C94F28;" d="M389.898,288.023L389.898,288.023c2.197,0,3.978-1.781,3.978-3.978v-43.55
					c0-2.197-1.781-3.978-3.978-3.978l0,0c-2.197,0-3.978,1.781-3.978,3.978v43.55C385.92,286.242,387.701,288.023,389.898,288.023z
					"/>
				<path style="fill:#C94F28;" d="M393.876,292.964c-1.826-0.418-4.459-1.297-7.018-6.373l3.04-50.073
					c1.162-0.082,2.801,0.843,4.633,2.176L393.876,292.964z"/>
				<g>
					<path style="fill:#FFFFFF;" d="M382.813,305.647h7.798c1.801,0,3.266-1.465,3.266-3.266V289.16
						c0-0.695-0.563-1.258-1.258-1.258c-0.695,0-1.258,0.563-1.258,1.258v13.222c0,0.413-0.337,0.749-0.749,0.749h-7.798
						c-0.695,0-1.258,0.563-1.258,1.258S382.117,305.647,382.813,305.647z"/>
				</g>
				<path style="fill:#FFE2D9;" d="M393.876,292.964L393.876,292.964c2.197,0,3.978-1.781,3.978-3.978v-46.372
					c0-2.197-1.781-3.978-3.978-3.978l0,0c-2.197,0-3.978,1.781-3.978,3.978v46.372
					C389.898,291.182,391.679,292.964,393.876,292.964z"/>
				<path style="fill:#FB7246;" d="M393.876,290.447c0.806,0,1.462-0.656,1.462-1.462v-46.372c0-0.806-0.656-1.462-1.462-1.462
					c-0.806,0-1.462,0.656-1.462,1.462v46.372C392.414,289.791,393.07,290.447,393.876,290.447z"/>
				<path style="fill:#FB7246;" d="M347.683,295.749h36.726c2.134,0,3.864-1.73,3.864-3.864l0,0c0-2.134-1.73-3.864-3.864-3.864
					h-36.726c-2.134,0-3.864,1.73-3.864,3.864l0,0C343.819,294.019,345.549,295.749,347.683,295.749z"/>
				
					<rect x="343.819" y="291.885" transform="matrix(-1 -1.224647e-16 1.224647e-16 -1 732.0918 596.274)" style="fill:#FB7246;" width="44.455" height="12.505"/>
				<path style="fill:#FFE2D9;" d="M347.683,308.254h36.726c2.134,0,3.864-1.73,3.864-3.864l0,0c0-2.134-1.73-3.864-3.864-3.864
					h-36.726c-2.134,0-3.864,1.73-3.864,3.864l0,0C343.819,306.524,345.549,308.254,347.683,308.254z"/>
				<path style="fill:#C94F28;" d="M384.409,305.738c0.743,0,1.348-0.606,1.348-1.349c0-0.743-0.604-1.348-1.348-1.348h-36.726
					c-0.743,0-1.348,0.604-1.348,1.348c0,0.743,0.604,1.349,1.348,1.349H384.409z"/>
			</g>
			<path style="fill:#FB7246;" d="M294.626,237.472H180.96c-3.647,0-7.238,0.894-10.459,2.604l-56.114,29.78h246.812l-56.114-29.78
				C301.864,238.365,298.273,237.472,294.626,237.472z"/>
			<g>
				<path style="fill:#FDB636;" d="M171.6,353.071c-4.51,0.664-14.039,1.518-18.012-2.237v2.819h-1.819v-8.902
					c0-1.091,0.327-2.155,0.946-3.055l0.191-0.273l0.427-0.637c0.655-0.955,0.991-2.091,0.946-3.246l-0.236-6.556l6.365,1.518
					v10.147c0,0,1.046,3.682,6.747,7.047c1.273,0.746,2.791,1.491,4.573,2.164C172.336,352.089,172.236,352.98,171.6,353.071z"/>
				<path style="fill:#322C74;" d="M171.6,353.071c-4.51,0.664-14.039,1.518-18.012-2.237v2.819h-1.819v-8.902
					c0-1.091,0.327-2.155,0.946-3.055l0.191-0.273c1.309,4.064,5.256,12.684,14.248,8.274c1.273,0.746,2.791,1.491,4.573,2.164
					C172.336,352.089,172.236,352.98,171.6,353.071z"/>
				<path style="fill:#322C74;" d="M124.185,276.278l37.633,0.818c2.28,0.049,4.053,2,3.887,4.274l-3.937,53.706
					c0,0-5.001,0.758-8.789-1.667c0,0-3.182-34.552-0.152-43.796c0,0-16.518,6.668-25.914,5.304L124.185,276.278z"/>
			</g>
			<g>
				<path style="fill:#FFE2D9;" d="M356.824,274.23H118.762c-2.416,0-4.375-1.959-4.375-4.375l0,0c0-2.416,1.959-4.375,4.375-4.375
					h238.062c2.416,0,4.375,1.959,4.375,4.375l0,0C361.199,272.271,359.24,274.23,356.824,274.23z"/>
				<path style="fill:#C94F28;" d="M118.763,271.714c-1.025,0-1.859-0.834-1.859-1.859c0-1.025,0.834-1.859,1.859-1.859h238.062
					c1.025,0,1.859,0.834,1.859,1.859c0,1.025-0.834,1.859-1.859,1.859H118.763z"/>
			</g>
			<g>
				<g>
					<path style="fill:#FD9D36;" d="M152.168,251.739l6.464-3.511c0.783-0.425,1.736-0.392,2.487,0.088l6.012,3.839
						c0.463,0.296,0.599,0.912,0.302,1.375l0,0c-0.273,0.425-0.82,0.579-1.274,0.357l-6.09-2.979l3.698,2.774
						c0.409,0.306,0.431,0.911,0.046,1.247l0,0c-0.237,0.207-0.573,0.256-0.859,0.126l-5.213-2.363c0,0-0.009,5.645-5.573,3.145
						V251.739z"/>
					<path style="fill:#FD9D36;" d="M161.118,248.316l4.977,1.76c0.464,0.164,0.69,0.688,0.492,1.138l0,0
						c-0.222,0.503-0.856,0.664-1.291,0.328L161.118,248.316z"/>
				</g>
				<polygon style="fill:#322C74;" points="131.558,220.662 139.188,246.879 153.736,246.879 153.887,255.517 125.094,256.577 
					123.066,219.038 				"/>
				<path style="fill:#FFFFFF;" d="M127.86,219.146c0,0,1.4,5.27,4.714,8.428c0.938,0.893,0.969,2.376,0.056,3.294l-4.769,4.796
					l-5.19-13.563l1.667-4.032L127.86,219.146z"/>
				<path style="fill:#FFFFFF;" d="M130.247,228.542c0,0,0.946,5.456,3.049,8.032c2.103,2.576,9.226,16.821-7.444,18.943
					l-0.758-16.064v-7.274L130.247,228.542z"/>
				<g>
					<path style="fill:#FFFFFF;" d="M189.178,221.647L189.178,221.647c-1.036,0-1.875,0.84-1.875,1.875v36.072h3.751v-36.072
						C191.054,222.486,190.214,221.647,189.178,221.647z"/>
					<path style="fill:#F2EEE5;" d="M188.539,262.109h-27.044c-2.778,0-5.03-2.252-5.03-5.03l0,0h32.074
						c1.389,0,2.515,1.126,2.515,2.515l0,0C191.054,260.983,189.928,262.109,188.539,262.109z"/>
					<g>
						<path style="fill:#FDB636;" d="M150.928,255.626l6.463-3.511c0.783-0.426,1.736-0.392,2.487,0.088l6.013,3.839
							c0.463,0.296,0.599,0.912,0.302,1.375l0,0c-0.272,0.425-0.82,0.578-1.274,0.357l-6.09-2.979l3.698,2.773
							c0.409,0.306,0.431,0.912,0.046,1.247l0,0c-0.237,0.207-0.573,0.256-0.859,0.126l-5.213-2.363c0,0-0.009,5.645-5.574,3.145
							V255.626z"/>
						<path style="fill:#FDB636;" d="M159.879,252.202l4.977,1.76c0.464,0.164,0.69,0.688,0.492,1.138l0,0
							c-0.221,0.503-0.856,0.664-1.291,0.328L159.879,252.202z"/>
					</g>
				</g>
				<path style="fill:#FDB636;" d="M147.295,203.916l-2.471,5.062c-0.332,0.679-0.057,1.499,0.617,1.84l0,0
					c0.651,0.33,0.551,1.29-0.154,1.479l-1.984,0.532c-0.434,0.116-0.816,0.373-1.088,0.73l-2.285,2.999
					c-1.439,1.888-4.23,2.029-5.852,0.295l-6.219-6.651l3.069-11.628h11.707L147.295,203.916z"/>
				<path style="fill:#5A4FD1;" d="M125.587,216.759c0,0-1.987,9.936,5.09,19.706c1.367,1.887,1.766,4.307,0.993,6.505
					l-8.697,24.708l6.951,21.78c1.001,3.136-0.27,6.573-3.109,8.24c-4.984,2.926-13.42,6.27-22.709,3.054
					c-14.775-5.115-11.707-25.118-2.5-30.574c0,0-7.615-45.008,18.299-55.919L125.587,216.759z"/>
				<path style="fill:#322C74;" d="M134.338,202.552l10.116,3.296l2.841-1.932l-1.407,2.881l2.771,1.524
					c0,0,3.523-14.294-5.342-18.385c-8.865-4.092-22.504-1.705-29.551,14.548c0,0,1.819,17.503,21.254,17.617
					C135.02,222.101,127.178,213.463,134.338,202.552z"/>
				<path style="fill:#322C74;" d="M120.486,265.461h-3.694c-2.235,0-4.167-1.56-4.638-3.744l-4.786-22.189l13.119,18.635V265.461z"
					/>
				<path style="fill:#5A4FD1;" d="M120.548,223.541l5.304,31.976l25.914-1.061v8.486l-31.28,2.518
					c-2.655,0.214-5.119-1.381-6.004-3.892c-2.192-6.219-6.165-17.832-7.875-24.994
					C106.606,236.574,106.303,228.087,120.548,223.541z"/>
			</g>
			<g>
				<g>
					<path style="fill:#322C74;" d="M341.442,341.415l-2.089,1.008l-1.465-0.698c0,0-15.532,4.326-17.923-0.148
						c0,0,7.454-1.032,10.977-4.815c0.463-0.488,0.853-1.02,1.156-1.601l6.638-0.927l1.076,2.849L341.442,341.415z"/>
					<path style="fill:#FDB636;" d="M339.811,337.082c-2.052,1.125-5.686,2.386-8.869-0.321c0.463-0.488,0.853-1.02,1.156-1.601
						l6.638-0.927L339.811,337.082z"/>
				</g>
				<g>
					<path style="fill:#1E1A45;" d="M323.513,336.998l-2.221,0.667l-1.337-0.919c0,0-16.018,1.838-17.679-2.956
						c0,0,7.523,0.149,11.595-3.035c0.534-0.409,1.002-0.873,1.392-1.4l6.701,0.125l0.615,2.983L323.513,336.998z"/>
					<path style="fill:#FDB636;" d="M322.581,332.463c-2.203,0.789-5.99,1.465-8.709-1.708c0.534-0.409,1.002-0.873,1.392-1.4
						l6.701,0.125L322.581,332.463z"/>
				</g>
				<path style="fill:#1E1A45;" d="M352.325,273.247l-27.666,2.542c-5.257,0.483-9.607,4.46-10.326,9.689
					c-0.109,0.791-0.176,1.639-0.188,2.545l-1.25,41.144c0,0,7.274,2.728,11.934,0l1.932-22.05l6.819-22.163l20.913-4.432
					L352.325,273.247z"/>
				<path style="fill:#322C74;" d="M384.992,275.672l3.467,1.503c0,0-0.072,0.835-0.284,2.171
					c-1.615,10.192-10.421,17.693-20.74,17.693h-31.847l2.424,10.456l-0.758,5.607l4.849,20.458c0,0-4.092,4.698-13.639,1.97
					l-12.275-45.8c0,0,0-10.12,5.607-11.635l31.673-2.425h25.46H384.992z"/>
			</g>
			<g>
				<path style="fill:#FFFFFF;" d="M289.237,221.647L289.237,221.647c1.036,0,1.875,0.84,1.875,1.875v36.072h-3.751v-36.072
					C287.361,222.486,288.201,221.647,289.237,221.647z"/>
				<path style="fill:#F2EEE5;" d="M289.876,262.109h27.044c2.778,0,5.03-2.252,5.03-5.03l0,0h-32.074
					c-1.389,0-2.515,1.126-2.515,2.515l0,0C287.361,260.983,288.487,262.109,289.876,262.109z"/>
				<g>
					<path style="fill:#FD9D36;" d="M328.093,249.961l-8.685-3.361c-1.052-0.407-2.243-0.21-3.109,0.514l-6.927,5.795
						c-0.534,0.447-0.604,1.242-0.156,1.775l0,0c0.411,0.49,1.124,0.594,1.658,0.241l7.164-4.728l-4.194,4.082
						c-0.463,0.451-0.393,1.214,0.144,1.574l0,0c0.331,0.221,0.761,0.229,1.1,0.019l6.162-3.812c0,0,0.926,7.086,7.508,3.044
						L328.093,249.961z"/>
					<path style="fill:#FD9D36;" d="M316.299,247.114l-5.964,3.017c-0.556,0.281-0.755,0.975-0.433,1.509l0,0
						c0.359,0.595,1.182,0.695,1.674,0.203L316.299,247.114z"/>
				</g>
				<path style="fill:#322C74;" d="M363.838,210.454c0,0-12.338,8.692-13.247,31.12l-24.516,3.94c0,0-0.792,6.516,1.784,10.305
					l33.946-4.243L363.838,210.454z"/>
				<g>
					<path style="fill:#FDB636;" d="M327.487,254.366l-8.183-4.445c-0.992-0.539-2.198-0.496-3.149,0.111l-7.612,4.86
						c-0.587,0.375-0.758,1.154-0.382,1.74l0,0c0.345,0.538,1.039,0.732,1.613,0.451l7.71-3.772l-4.682,3.511
						c-0.518,0.388-0.546,1.154-0.059,1.579l0,0c0.3,0.262,0.725,0.324,1.088,0.16l6.599-2.992c0,0,0.011,7.147,7.057,3.981V254.366
						z"/>
					<path style="fill:#FDB636;" d="M316.155,250.032l-6.301,2.229c-0.587,0.208-0.874,0.871-0.623,1.441l0,0
						c0.28,0.636,1.084,0.841,1.634,0.416L316.155,250.032z"/>
				</g>
				<path style="fill:#5A4FD1;" d="M388.458,277.18c-0.277-0.101-5.561-1.812-10.14,3.636c-4.693,5.611-12.832,11.977-20.506,7.284
					c-7.674-4.692-8.454-10.165-7.825-14.556l1.17-8.064l0.742-5.146l1.812-12.543c0,0-0.365-3.271-0.239-8.026
					c0-0.013,0-0.013,0-0.025c0.289-10.505,3.032-28.256,17.625-33.779c0,0,2.202,0.767,4.869,2.478
					c4.215,2.68,9.612,7.674,9.335,15.55C384.835,236.872,375.425,265.656,388.458,277.18z"/>
				<path style="fill:#FDB636;" d="M345.969,186.64l-1.25,4.433l1.562,6.539c0.147,0.615-0.187,1.243-0.779,1.465l-0.326,0.122
					c-0.835,0.313-0.872,1.481-0.057,1.846l0.638,0.286c0.936,0.418,1.665,1.194,2.025,2.155l1.541,4.11
					c0.724,1.932,2.865,2.926,4.809,2.232l7.636-2.727l3.296,5.342l6.024-4.433l-3.978-10.115l-2.614-11.252l-8.979-2.614
					L345.969,186.64z"/>
				<path style="fill:#322C74;" d="M367.025,201.272l1.432-0.587c0.766-0.314,1.267-1.061,1.267-1.889v-11.628
					c0-2.903-1.203-5.685-3.357-7.63c-1.864-1.684-4.623-3.334-8.559-3.923c-5.246-0.909-9.906,2.387-11.384,6.365
					c0,0,0.341-5.569-3.296-4.887c-3.637,0.682-5.91,5.456-5.342,8.752c0.54,3.13,3.026,10.359,12.131,2.809
					c0.701-0.581,1.771-0.204,1.979,0.682l1.476,6.311c0.203,0.87,0.933,1.517,1.82,1.615l0,0c1.241,0.138,2.295-0.828,2.34-2.076
					c0.037-1.023,0.308-2.168,1.167-2.976c1.932-1.819,7.388,0.682,4.887,6.024l0.929,2.044
					C364.948,201.23,366.057,201.67,367.025,201.272z"/>
				<path style="fill:#FFFFFF;" d="M375.966,208.435c0,0-18.54,5.719-22.495,31.306c0.291-10.511,3.037-28.251,17.622-33.779
					C371.092,205.962,373.292,206.735,375.966,208.435z"/>
				<path style="fill:#322C74;" d="M380.557,234.544l-14.317,28.646c-0.692,1.409-2.126,2.29-3.699,2.29h-11.385l0.742-5.146
					l3.082-4.516L380.557,234.544z"/>
				<path style="fill:#322C74;" d="M364.083,232.398c0,0-3.753,6.908-5.787,13.817l-3.968,1.882l-0.37,5.941l9.172-3.938
					L364.083,232.398z"/>
				<path style="fill:#5A4FD1;" d="M381.415,219.933c-1.752-1.675-4.1-2.659-6.524-2.654c-3.206,0.007-7.76,1.598-10.173,9.658
					c-3.973,14.486-5.186,20.91-5.186,20.91l-33.188,3.881c0,0-1.212,7.426,1.516,11.214h34.704c0,0,16.367-22.125,18.64-29.248
					C381.203,233.694,387.112,225.378,381.415,219.933z"/>
			</g>
		</g>
		<g>
			<path style="fill:#65AAF7;" d="M204.101,156.303h-33.597c-2.3,0-4.164-1.864-4.164-4.164v-19.466c0-2.3,1.864-4.164,4.164-4.164
				h33.597c2.3,0,4.164,1.864,4.164,4.164v19.466C208.265,154.439,206.401,156.303,204.101,156.303z"/>
			<polygon style="fill:#65AAF7;" points="201.815,149.263 201.815,164.348 193.215,149.263 			"/>
		</g>
		<g>
			<path style="fill:#65AAF7;" d="M263.77,173.14h20.272c1.388,0,2.512-1.125,2.512-2.512v-11.745c0-1.388-1.125-2.512-2.512-2.512
				H263.77c-1.388,0-2.513,1.125-2.513,2.512v11.745C261.257,172.015,262.382,173.14,263.77,173.14z"/>
			<polygon style="fill:#65AAF7;" points="265.149,168.892 265.149,177.994 270.339,168.892 			"/>
		</g>
	</g>
</g>
<g id="DESIGNED_BY_FREEPIK">
	<g>
		<g>
			<path style="fill:#2C9E7B;" d="M180.308,483.353v-0.16c-0.218,0.249-0.433,0.451-0.645,0.606
				c-0.212,0.156-0.441,0.275-0.689,0.355c-0.247,0.082-0.517,0.121-0.809,0.121c-0.389,0-0.748-0.081-1.078-0.244
				c-0.331-0.164-0.617-0.398-0.857-0.702c-0.242-0.304-0.425-0.661-0.549-1.071c-0.126-0.412-0.188-0.855-0.188-1.333
				c0-1.011,0.247-1.799,0.742-2.363c0.494-0.564,1.145-0.847,1.953-0.847c0.466,0,0.86,0.081,1.182,0.24
				c0.32,0.16,0.633,0.406,0.938,0.736v-2.386c0-0.332,0.065-0.582,0.198-0.752c0.133-0.17,0.322-0.255,0.567-0.255
				c0.245,0,0.434,0.078,0.566,0.234c0.133,0.156,0.199,0.385,0.199,0.689v7.13c0,0.308-0.071,0.538-0.214,0.692
				c-0.143,0.154-0.326,0.23-0.552,0.23c-0.222,0-0.404-0.079-0.549-0.238C180.38,483.876,180.308,483.648,180.308,483.353
				 M177.119,480.978c0,0.438,0.068,0.811,0.205,1.119c0.137,0.308,0.324,0.539,0.561,0.695c0.237,0.156,0.496,0.234,0.777,0.234
				c0.285,0,0.545-0.074,0.781-0.223c0.235-0.147,0.423-0.375,0.563-0.68c0.141-0.307,0.21-0.69,0.21-1.147
				c0-0.432-0.069-0.801-0.21-1.111c-0.141-0.31-0.33-0.547-0.57-0.711c-0.239-0.163-0.502-0.244-0.786-0.244
				c-0.297,0-0.562,0.084-0.795,0.251c-0.234,0.167-0.415,0.407-0.544,0.722C177.184,480.199,177.119,480.564,177.119,480.978"/>
			<path style="fill:#2C9E7B;" d="M187.453,481.387h-3.169c0.004,0.367,0.078,0.691,0.223,0.971
				c0.145,0.281,0.337,0.492,0.575,0.634c0.24,0.143,0.504,0.212,0.793,0.212c0.193,0,0.371-0.021,0.531-0.066
				c0.16-0.046,0.315-0.116,0.467-0.213c0.15-0.097,0.288-0.201,0.415-0.31c0.126-0.111,0.29-0.264,0.492-0.451
				c0.083-0.071,0.201-0.107,0.357-0.107c0.167,0,0.301,0.047,0.403,0.137c0.102,0.092,0.155,0.219,0.155,0.385
				c0,0.146-0.058,0.316-0.173,0.513c-0.115,0.195-0.288,0.383-0.519,0.563c-0.233,0.18-0.523,0.328-0.872,0.446
				c-0.351,0.119-0.753,0.178-1.209,0.178c-1.041,0-1.85-0.296-2.428-0.888c-0.577-0.592-0.866-1.396-0.866-2.409
				c0-0.478,0.071-0.922,0.214-1.33c0.143-0.408,0.351-0.759,0.623-1.051c0.272-0.293,0.609-0.516,1.01-0.672
				c0.398-0.156,0.843-0.234,1.329-0.234c0.633,0,1.176,0.133,1.629,0.4c0.454,0.266,0.793,0.61,1.018,1.032
				c0.226,0.423,0.339,0.854,0.339,1.29c0,0.408-0.116,0.671-0.35,0.792C188.206,481.326,187.878,481.387,187.453,481.387
				 M184.284,480.469h2.939c-0.039-0.553-0.19-0.967-0.448-1.24c-0.26-0.275-0.601-0.412-1.024-0.412
				c-0.403,0-0.735,0.139-0.994,0.416C184.497,479.512,184.34,479.924,184.284,480.469"/>
			<path style="fill:#2C9E7B;" d="M194.838,482.162c0,0.445-0.108,0.828-0.326,1.146c-0.218,0.317-0.539,0.559-0.965,0.723
				c-0.425,0.163-0.942,0.244-1.552,0.244c-0.582,0-1.081-0.088-1.497-0.266c-0.415-0.178-0.722-0.4-0.92-0.666
				c-0.198-0.268-0.296-0.533-0.296-0.803c0-0.178,0.063-0.33,0.189-0.455c0.127-0.127,0.287-0.189,0.482-0.189
				c0.17,0,0.3,0.041,0.391,0.123c0.092,0.084,0.179,0.201,0.262,0.35c0.166,0.289,0.365,0.503,0.597,0.646
				c0.231,0.141,0.547,0.213,0.947,0.213c0.324,0,0.59-0.072,0.798-0.217c0.208-0.145,0.311-0.309,0.311-0.494
				c0-0.285-0.107-0.491-0.323-0.621c-0.216-0.131-0.57-0.256-1.065-0.375c-0.559-0.137-1.013-0.283-1.362-0.435
				c-0.351-0.151-0.631-0.353-0.84-0.601c-0.21-0.248-0.315-0.555-0.315-0.918c0-0.323,0.098-0.629,0.291-0.918
				c0.194-0.287,0.48-0.518,0.858-0.689c0.378-0.172,0.833-0.258,1.368-0.258c0.419,0,0.797,0.043,1.13,0.131
				c0.335,0.086,0.615,0.203,0.838,0.35c0.224,0.145,0.394,0.307,0.51,0.484c0.117,0.178,0.176,0.352,0.176,0.522
				c0,0.185-0.063,0.338-0.187,0.457c-0.125,0.117-0.302,0.178-0.532,0.178c-0.166,0-0.308-0.049-0.424-0.145
				c-0.117-0.094-0.251-0.235-0.4-0.425c-0.123-0.157-0.268-0.284-0.434-0.38c-0.166-0.094-0.392-0.141-0.677-0.141
				c-0.293,0-0.537,0.06-0.73,0.185c-0.194,0.125-0.29,0.279-0.29,0.465c0,0.17,0.07,0.309,0.213,0.418
				c0.143,0.108,0.334,0.199,0.576,0.27c0.241,0.07,0.573,0.156,0.997,0.26c0.502,0.123,0.912,0.27,1.231,0.439
				c0.318,0.169,0.56,0.37,0.725,0.601C194.756,481.603,194.838,481.865,194.838,482.162"/>
			<path style="fill:#2C9E7B;" d="M196.493,476.951c-0.226,0-0.418-0.068-0.578-0.207c-0.16-0.138-0.24-0.333-0.24-0.586
				c0-0.23,0.082-0.418,0.246-0.566c0.163-0.148,0.355-0.223,0.572-0.223c0.21,0,0.396,0.068,0.558,0.202
				c0.163,0.135,0.244,0.329,0.244,0.587c0,0.248-0.079,0.443-0.237,0.582C196.899,476.881,196.711,476.951,196.493,476.951
				 M197.295,478.621v4.672c0,0.324-0.077,0.568-0.232,0.734c-0.154,0.166-0.351,0.248-0.588,0.248
				c-0.237,0-0.431-0.084-0.579-0.254c-0.148-0.17-0.222-0.412-0.222-0.729v-4.625c0-0.318,0.073-0.561,0.222-0.723
				c0.148-0.162,0.342-0.242,0.579-0.242c0.237,0,0.434,0.08,0.588,0.242C197.218,478.107,197.295,478.333,197.295,478.621"/>
			<path style="fill:#2C9E7B;" d="M204.395,478.888v4.695c0,0.537-0.059,0.999-0.173,1.387c-0.114,0.386-0.299,0.706-0.552,0.958
				c-0.254,0.253-0.585,0.441-0.994,0.563c-0.41,0.123-0.919,0.184-1.529,0.184c-0.558,0-1.056-0.078-1.496-0.233
				c-0.438-0.156-0.776-0.357-1.015-0.604c-0.237-0.246-0.356-0.5-0.356-0.76c0-0.197,0.067-0.359,0.202-0.482
				c0.135-0.125,0.298-0.188,0.486-0.188c0.238,0,0.446,0.105,0.624,0.313c0.086,0.107,0.177,0.216,0.27,0.323
				c0.093,0.109,0.197,0.201,0.309,0.279c0.113,0.076,0.248,0.133,0.407,0.171c0.158,0.036,0.341,0.056,0.546,0.056
				c0.42,0,0.745-0.058,0.977-0.174c0.232-0.117,0.394-0.279,0.487-0.489c0.093-0.208,0.147-0.433,0.163-0.672
				c0.016-0.239,0.027-0.622,0.035-1.152c-0.249,0.349-0.536,0.612-0.864,0.794c-0.326,0.182-0.715,0.272-1.166,0.272
				c-0.542,0-1.016-0.138-1.422-0.415c-0.405-0.275-0.717-0.662-0.934-1.16c-0.218-0.498-0.326-1.071-0.326-1.723
				c0-0.485,0.065-0.924,0.198-1.315c0.133-0.392,0.321-0.721,0.567-0.99c0.245-0.268,0.528-0.471,0.848-0.606
				c0.321-0.136,0.674-0.204,1.058-0.204c0.459,0,0.856,0.088,1.193,0.264c0.336,0.176,0.649,0.451,0.938,0.826v-0.219
				c0-0.281,0.068-0.498,0.208-0.652c0.139-0.152,0.316-0.23,0.534-0.23c0.313,0,0.521,0.102,0.623,0.305
				C204.343,478.211,204.395,478.505,204.395,478.888 M199.699,480.936c0,0.655,0.143,1.151,0.43,1.486
				c0.286,0.336,0.658,0.503,1.113,0.503c0.269,0,0.523-0.072,0.762-0.216c0.24-0.144,0.435-0.361,0.586-0.651
				c0.149-0.291,0.226-0.642,0.226-1.057c0-0.659-0.145-1.173-0.437-1.539c-0.291-0.367-0.674-0.551-1.148-0.551
				c-0.464,0-0.835,0.176-1.113,0.527C199.838,479.789,199.699,480.289,199.699,480.936"/>
			<path style="fill:#2C9E7B;" d="M206.97,478.598v0.195c0.284-0.375,0.597-0.65,0.936-0.826c0.338-0.176,0.727-0.264,1.166-0.264
				c0.428,0,0.81,0.093,1.146,0.279c0.336,0.186,0.588,0.447,0.753,0.786c0.108,0.198,0.177,0.411,0.208,0.64
				c0.032,0.229,0.049,0.521,0.049,0.877v3.008c0,0.324-0.075,0.568-0.223,0.734c-0.149,0.166-0.342,0.248-0.579,0.248
				c-0.242,0-0.438-0.084-0.588-0.254c-0.151-0.17-0.226-0.412-0.226-0.729v-2.694c0-0.532-0.075-0.94-0.223-1.223
				c-0.148-0.282-0.443-0.424-0.888-0.424c-0.288,0-0.552,0.086-0.789,0.258c-0.238,0.173-0.412,0.408-0.522,0.708
				c-0.079,0.241-0.119,0.69-0.119,1.35v2.025c0,0.327-0.076,0.574-0.228,0.738c-0.153,0.163-0.35,0.244-0.591,0.244
				c-0.234,0-0.426-0.084-0.576-0.254c-0.15-0.17-0.227-0.412-0.227-0.729v-4.672c0-0.309,0.068-0.538,0.202-0.69
				c0.135-0.151,0.318-0.228,0.552-0.228c0.143,0,0.271,0.033,0.387,0.102c0.114,0.066,0.207,0.168,0.276,0.301
				C206.936,478.24,206.97,478.404,206.97,478.598"/>
			<path style="fill:#2C9E7B;" d="M216.829,481.387h-3.17c0.005,0.367,0.078,0.691,0.223,0.971c0.145,0.281,0.336,0.492,0.576,0.634
				c0.239,0.143,0.503,0.212,0.792,0.212c0.193,0,0.371-0.021,0.531-0.066c0.159-0.046,0.315-0.116,0.467-0.213
				c0.149-0.097,0.288-0.201,0.415-0.31c0.126-0.111,0.29-0.264,0.492-0.451c0.083-0.071,0.202-0.107,0.357-0.107
				c0.166,0,0.301,0.047,0.403,0.137c0.104,0.092,0.154,0.219,0.154,0.385c0,0.146-0.057,0.316-0.172,0.513
				c-0.115,0.195-0.288,0.383-0.519,0.563c-0.232,0.18-0.522,0.328-0.872,0.446c-0.351,0.119-0.754,0.178-1.208,0.178
				c-1.041,0-1.851-0.296-2.429-0.888c-0.577-0.592-0.866-1.396-0.866-2.409c0-0.478,0.071-0.922,0.213-1.33
				c0.143-0.408,0.352-0.759,0.624-1.051c0.273-0.293,0.61-0.516,1.01-0.672c0.398-0.156,0.843-0.234,1.329-0.234
				c0.633,0,1.176,0.133,1.63,0.4c0.452,0.266,0.792,0.61,1.019,1.032c0.225,0.423,0.338,0.854,0.338,1.29
				c0,0.408-0.117,0.671-0.351,0.792C217.581,481.326,217.253,481.387,216.829,481.387 M213.659,480.469h2.939
				c-0.04-0.553-0.19-0.967-0.448-1.24c-0.26-0.275-0.601-0.412-1.024-0.412c-0.403,0-0.735,0.139-0.994,0.416
				C213.871,479.512,213.715,479.924,213.659,480.469"/>
			<path style="fill:#2C9E7B;" d="M223.436,483.353v-0.16c-0.219,0.249-0.433,0.451-0.645,0.606
				c-0.212,0.156-0.44,0.275-0.688,0.355c-0.247,0.082-0.518,0.121-0.811,0.121c-0.388,0-0.747-0.081-1.077-0.244
				c-0.33-0.164-0.617-0.398-0.857-0.702c-0.241-0.304-0.425-0.661-0.549-1.071c-0.125-0.412-0.188-0.855-0.188-1.333
				c0-1.011,0.247-1.799,0.742-2.363c0.494-0.564,1.145-0.847,1.953-0.847c0.467,0,0.86,0.081,1.182,0.24
				c0.319,0.16,0.633,0.406,0.938,0.736v-2.386c0-0.332,0.065-0.582,0.198-0.752c0.133-0.17,0.322-0.255,0.567-0.255
				c0.245,0,0.435,0.078,0.566,0.234c0.133,0.156,0.2,0.385,0.2,0.689v7.13c0,0.308-0.072,0.538-0.215,0.692
				c-0.142,0.154-0.326,0.23-0.552,0.23c-0.222,0-0.404-0.079-0.549-0.238C223.508,483.876,223.436,483.648,223.436,483.353
				 M220.247,480.978c0,0.438,0.068,0.811,0.205,1.119c0.137,0.308,0.324,0.539,0.561,0.695c0.237,0.156,0.497,0.234,0.777,0.234
				c0.285,0,0.546-0.074,0.78-0.223c0.236-0.147,0.424-0.375,0.564-0.68c0.142-0.307,0.212-0.69,0.212-1.147
				c0-0.432-0.07-0.801-0.212-1.111c-0.14-0.31-0.329-0.547-0.569-0.711c-0.239-0.163-0.502-0.244-0.786-0.244
				c-0.297,0-0.562,0.084-0.796,0.251c-0.233,0.167-0.414,0.407-0.543,0.722C220.312,480.199,220.247,480.564,220.247,480.978"/>
			<path style="fill:#2C9E7B;" d="M230.059,476.223v2.469c0.305-0.314,0.615-0.558,0.933-0.725c0.316-0.168,0.708-0.252,1.175-0.252
				c0.539,0,1.01,0.127,1.416,0.381c0.405,0.256,0.72,0.625,0.944,1.109c0.223,0.482,0.335,1.057,0.335,1.72
				c0,0.489-0.063,0.939-0.187,1.347c-0.125,0.408-0.307,0.764-0.543,1.063c-0.238,0.301-0.525,0.533-0.863,0.697
				c-0.339,0.163-0.713,0.244-1.12,0.244c-0.249,0-0.484-0.029-0.703-0.088c-0.22-0.06-0.407-0.137-0.562-0.234
				c-0.153-0.096-0.285-0.195-0.395-0.299c-0.108-0.102-0.253-0.257-0.431-0.462v0.16c0,0.304-0.073,0.534-0.22,0.69
				c-0.146,0.156-0.332,0.232-0.558,0.232c-0.23,0-0.412-0.076-0.549-0.232c-0.137-0.156-0.205-0.387-0.205-0.69v-7.06
				c0-0.327,0.066-0.574,0.198-0.742c0.133-0.168,0.318-0.252,0.556-0.252c0.25,0,0.44,0.08,0.576,0.24
				C229.992,475.699,230.059,475.926,230.059,476.223 M230.136,481.025c0,0.644,0.147,1.137,0.442,1.482
				c0.295,0.346,0.682,0.52,1.161,0.52c0.407,0,0.759-0.177,1.053-0.53c0.296-0.354,0.442-0.86,0.442-1.519
				c0-0.427-0.061-0.795-0.184-1.101c-0.123-0.309-0.297-0.547-0.522-0.714c-0.226-0.167-0.489-0.251-0.789-0.251
				c-0.309,0-0.585,0.084-0.826,0.251c-0.241,0.167-0.431,0.41-0.569,0.728C230.205,480.209,230.136,480.587,230.136,481.025"/>
			<path style="fill:#2C9E7B;" d="M236.963,484.478l0.148-0.362l-1.995-5.009c-0.123-0.288-0.184-0.497-0.184-0.628
				c0-0.139,0.036-0.266,0.107-0.385c0.071-0.118,0.169-0.213,0.293-0.283c0.125-0.072,0.255-0.107,0.39-0.107
				c0.233,0,0.409,0.074,0.528,0.223c0.119,0.147,0.224,0.359,0.314,0.636l1.372,3.979l1.3-3.7c0.103-0.299,0.195-0.535,0.278-0.705
				c0.083-0.17,0.171-0.283,0.264-0.342c0.094-0.061,0.225-0.09,0.395-0.09c0.123,0,0.24,0.032,0.354,0.098
				c0.112,0.065,0.199,0.152,0.261,0.264c0.061,0.11,0.093,0.226,0.093,0.35c-0.017,0.074-0.041,0.181-0.078,0.32
				c-0.036,0.137-0.078,0.278-0.13,0.42l-2.113,5.519c-0.183,0.485-0.36,0.866-0.534,1.142c-0.175,0.276-0.405,0.489-0.692,0.637
				c-0.287,0.148-0.674,0.222-1.16,0.222c-0.475,0-0.831-0.051-1.067-0.152c-0.239-0.104-0.356-0.291-0.356-0.565
				c0-0.185,0.056-0.328,0.169-0.428c0.112-0.102,0.279-0.152,0.501-0.152c0.087,0,0.172,0.012,0.255,0.037
				c0.104,0.022,0.192,0.035,0.268,0.035c0.186,0,0.332-0.027,0.439-0.084c0.106-0.055,0.202-0.15,0.288-0.287
				C236.754,484.943,236.853,484.742,236.963,484.478"/>
			<path style="fill:#2C9E7B;" d="M260.439,477.843h0.386v-0.485c0-0.508,0.063-0.908,0.192-1.207
				c0.127-0.299,0.347-0.516,0.654-0.652c0.307-0.135,0.727-0.203,1.26-0.203c0.95,0,1.421,0.229,1.421,0.695
				c0,0.148-0.05,0.276-0.15,0.383c-0.098,0.105-0.215,0.16-0.349,0.16c-0.062,0-0.174-0.012-0.33-0.037
				c-0.148-0.021-0.283-0.035-0.389-0.035c-0.292,0-0.479,0.088-0.566,0.259c-0.08,0.171-0.121,0.417-0.121,0.738v0.385h0.395
				c0.619,0,0.925,0.185,0.925,0.559c0,0.261-0.079,0.431-0.245,0.501c-0.163,0.072-0.39,0.107-0.68,0.107h-0.395v4.283
				c0,0.318-0.076,0.563-0.23,0.729c-0.151,0.17-0.347,0.254-0.59,0.254c-0.23,0-0.42-0.084-0.574-0.254
				c-0.152-0.166-0.228-0.41-0.228-0.729v-4.283h-0.446c-0.242,0-0.426-0.053-0.558-0.164c-0.131-0.105-0.197-0.248-0.197-0.422
				C259.624,478.035,259.895,477.843,260.439,477.843"/>
			<path style="fill:#2C9E7B;" d="M265.744,481.941v1.352c0,0.326-0.083,0.573-0.233,0.736c-0.153,0.165-0.349,0.246-0.586,0.246
				c-0.237,0-0.43-0.082-0.578-0.25c-0.149-0.164-0.226-0.408-0.226-0.732v-4.502c0-0.727,0.262-1.092,0.787-1.092
				c0.273,0,0.465,0.084,0.585,0.256c0.117,0.17,0.184,0.42,0.197,0.753c0.193-0.333,0.39-0.583,0.592-0.753
				c0.208-0.172,0.478-0.256,0.819-0.256c0.343,0,0.67,0.084,0.991,0.256c0.322,0.17,0.482,0.396,0.482,0.676
				c0,0.195-0.068,0.362-0.204,0.486c-0.137,0.131-0.283,0.195-0.44,0.195c-0.063,0-0.208-0.039-0.433-0.111
				c-0.229-0.072-0.431-0.109-0.602-0.109c-0.238,0-0.434,0.065-0.584,0.188c-0.151,0.127-0.268,0.309-0.352,0.552
				c-0.08,0.245-0.138,0.54-0.171,0.876C265.759,481.045,265.744,481.457,265.744,481.941"/>
			<path style="fill:#2C9E7B;" d="M273.195,481.385h-3.171c0.006,0.367,0.076,0.693,0.221,0.973c0.147,0.277,0.338,0.49,0.578,0.633
				c0.241,0.143,0.502,0.213,0.794,0.213c0.192,0,0.37-0.021,0.529-0.07c0.159-0.043,0.316-0.115,0.467-0.211
				c0.151-0.096,0.288-0.199,0.415-0.313c0.127-0.109,0.292-0.26,0.494-0.448c0.083-0.071,0.203-0.108,0.355-0.108
				c0.168,0,0.301,0.046,0.406,0.139c0.104,0.092,0.152,0.218,0.152,0.385c0,0.146-0.056,0.316-0.168,0.51
				c-0.116,0.198-0.29,0.385-0.522,0.565c-0.233,0.179-0.524,0.329-0.873,0.444c-0.351,0.119-0.753,0.18-1.207,0.18
				c-1.045,0-1.854-0.295-2.43-0.887c-0.577-0.594-0.869-1.398-0.869-2.412c0-0.479,0.073-0.922,0.216-1.33
				c0.142-0.411,0.35-0.759,0.625-1.053c0.272-0.293,0.605-0.517,1.009-0.672c0.397-0.156,0.841-0.233,1.329-0.233
				c0.631,0,1.176,0.134,1.629,0.402c0.452,0.264,0.797,0.608,1.018,1.031c0.225,0.425,0.339,0.853,0.339,1.294
				c0,0.404-0.119,0.666-0.352,0.789C273.946,481.324,273.619,481.385,273.195,481.385 M270.024,480.466h2.938
				c-0.039-0.552-0.186-0.966-0.446-1.238c-0.262-0.276-0.6-0.411-1.025-0.411c-0.404,0-0.736,0.137-0.995,0.416
				C270.237,479.512,270.079,479.922,270.024,480.466"/>
			<path style="fill:#2C9E7B;" d="M279.937,481.385h-3.17c0.003,0.367,0.078,0.693,0.221,0.973c0.146,0.277,0.337,0.49,0.575,0.633
				c0.239,0.143,0.504,0.213,0.796,0.213c0.191,0,0.369-0.021,0.527-0.07c0.161-0.043,0.315-0.115,0.469-0.211
				c0.151-0.096,0.288-0.199,0.415-0.313c0.124-0.109,0.29-0.26,0.493-0.448c0.084-0.071,0.203-0.108,0.354-0.108
				c0.169,0,0.303,0.046,0.406,0.139c0.105,0.092,0.151,0.218,0.151,0.385c0,0.146-0.055,0.316-0.172,0.51
				c-0.109,0.198-0.284,0.385-0.519,0.565c-0.23,0.179-0.525,0.329-0.872,0.444c-0.349,0.119-0.754,0.18-1.209,0.18
				c-1.042,0-1.85-0.295-2.43-0.887c-0.576-0.594-0.866-1.398-0.866-2.412c0-0.479,0.071-0.922,0.216-1.33
				c0.143-0.411,0.351-0.759,0.624-1.053c0.27-0.293,0.606-0.517,1.008-0.672c0.398-0.156,0.844-0.233,1.331-0.233
				c0.63,0,1.174,0.134,1.633,0.402c0.45,0.264,0.791,0.608,1.013,1.031c0.225,0.425,0.34,0.853,0.34,1.294
				c0,0.404-0.119,0.666-0.352,0.789C280.686,481.324,280.359,481.385,279.937,481.385 M276.767,480.466h2.937
				c-0.039-0.552-0.189-0.966-0.446-1.238c-0.263-0.276-0.6-0.411-1.025-0.411c-0.404,0-0.735,0.137-0.996,0.416
				C276.978,479.512,276.819,479.922,276.767,480.466"/>
			<path style="fill:#2C9E7B;" d="M283.487,478.609v0.193c0.304-0.374,0.621-0.649,0.952-0.825c0.324-0.177,0.699-0.267,1.114-0.267
				c0.497,0,0.96,0.131,1.38,0.385c0.42,0.259,0.749,0.634,0.992,1.127c0.244,0.496,0.366,1.078,0.366,1.754
				c0,0.496-0.069,0.955-0.21,1.373c-0.14,0.416-0.336,0.764-0.58,1.047c-0.246,0.28-0.534,0.5-0.869,0.652
				c-0.338,0.15-0.693,0.227-1.079,0.227c-0.461,0-0.853-0.094-1.166-0.279c-0.314-0.182-0.613-0.457-0.9-0.814v2.428
				c0,0.707-0.26,1.065-0.777,1.065c-0.307,0-0.506-0.091-0.608-0.273c-0.094-0.187-0.146-0.452-0.146-0.805v-6.98
				c0-0.309,0.066-0.535,0.2-0.69c0.135-0.149,0.32-0.228,0.554-0.228c0.23,0,0.416,0.078,0.559,0.234
				C283.416,478.092,283.487,478.314,283.487,478.609 M286.665,480.959c0-0.427-0.067-0.795-0.197-1.1
				c-0.13-0.307-0.313-0.541-0.542-0.703c-0.229-0.164-0.488-0.247-0.768-0.247c-0.447,0-0.825,0.177-1.132,0.526
				c-0.308,0.353-0.461,0.869-0.461,1.555c0,0.639,0.152,1.143,0.459,1.5c0.305,0.357,0.679,0.535,1.134,0.535
				c0.267,0,0.518-0.078,0.747-0.232c0.231-0.158,0.416-0.391,0.553-0.702C286.595,481.777,286.665,481.4,286.665,480.959"/>
			<path style="fill:#2C9E7B;" d="M289.925,476.947c-0.227,0-0.418-0.071-0.577-0.209c-0.162-0.139-0.243-0.332-0.243-0.584
				c0-0.228,0.082-0.418,0.249-0.566c0.164-0.146,0.354-0.223,0.571-0.223c0.213,0,0.398,0.066,0.559,0.199
				c0.162,0.137,0.244,0.333,0.244,0.59c0,0.25-0.08,0.443-0.237,0.584C290.332,476.876,290.143,476.947,289.925,476.947
				 M290.727,478.617v4.678c0,0.321-0.077,0.566-0.231,0.73c-0.156,0.168-0.352,0.25-0.588,0.25c-0.238,0-0.429-0.084-0.58-0.254
				c-0.147-0.172-0.224-0.414-0.224-0.727v-4.631c0-0.318,0.077-0.559,0.224-0.721c0.151-0.164,0.342-0.244,0.58-0.244
				c0.236,0,0.432,0.08,0.588,0.244C290.65,478.105,290.727,478.332,290.727,478.617"/>
			<path style="fill:#2C9E7B;" d="M295.952,483.537l-1.428-2.348l-0.88,0.828v1.287c0,0.312-0.083,0.551-0.249,0.717
				c-0.16,0.17-0.352,0.254-0.565,0.254c-0.25,0-0.447-0.082-0.588-0.25c-0.142-0.164-0.215-0.409-0.215-0.732v-6.897
				c0-0.356,0.072-0.63,0.207-0.819c0.139-0.19,0.341-0.281,0.596-0.281c0.249,0,0.446,0.086,0.593,0.256
				c0.147,0.169,0.222,0.42,0.222,0.75v3.924l1.822-1.91c0.227-0.234,0.395-0.399,0.517-0.484c0.118-0.087,0.263-0.131,0.431-0.131
				c0.204,0,0.371,0.065,0.511,0.193c0.132,0.129,0.2,0.29,0.2,0.482c0,0.236-0.223,0.554-0.66,0.948l-0.861,0.787l1.663,2.608
				c0.121,0.195,0.211,0.338,0.265,0.439c0.053,0.1,0.081,0.199,0.081,0.288c0,0.257-0.071,0.458-0.213,0.608
				c-0.141,0.147-0.327,0.221-0.553,0.221c-0.199,0-0.353-0.052-0.459-0.16C296.281,484.008,296.133,483.815,295.952,483.537"/>
			<path style="fill:#2C9E7B;" d="M299.474,484.275c-0.244,0-0.454-0.079-0.634-0.238c-0.177-0.154-0.268-0.377-0.268-0.664
				c0-0.24,0.086-0.447,0.257-0.619c0.171-0.175,0.38-0.262,0.63-0.262c0.248,0,0.46,0.087,0.639,0.257
				c0.174,0.172,0.265,0.382,0.265,0.624c0,0.283-0.091,0.504-0.265,0.661C299.919,484.196,299.712,484.275,299.474,484.275"/>
			<path style="fill:#2C9E7B;" d="M307.535,482.273c0,0.199-0.06,0.416-0.182,0.645c-0.119,0.23-0.305,0.447-0.554,0.654
				c-0.246,0.207-0.557,0.375-0.934,0.502c-0.375,0.125-0.8,0.191-1.269,0.191c-1.005,0-1.786-0.293-2.349-0.874
				c-0.559-0.583-0.841-1.364-0.841-2.345c0-0.665,0.127-1.25,0.387-1.76c0.255-0.508,0.628-0.902,1.113-1.182
				c0.487-0.279,1.073-0.418,1.747-0.418c0.42,0,0.805,0.061,1.157,0.185c0.35,0.122,0.645,0.281,0.89,0.474
				c0.243,0.195,0.43,0.4,0.557,0.618c0.13,0.22,0.191,0.425,0.191,0.616s-0.07,0.355-0.213,0.49
				c-0.148,0.134-0.322,0.202-0.525,0.202c-0.137,0-0.249-0.036-0.338-0.104c-0.09-0.07-0.19-0.181-0.3-0.338
				c-0.198-0.298-0.403-0.524-0.623-0.673c-0.214-0.152-0.487-0.227-0.82-0.227c-0.476,0-0.864,0.186-1.158,0.561
				c-0.293,0.371-0.44,0.885-0.44,1.529c0,0.305,0.039,0.586,0.114,0.84c0.073,0.254,0.183,0.472,0.325,0.651
				c0.143,0.179,0.314,0.315,0.517,0.408c0.202,0.095,0.426,0.141,0.665,0.141c0.324,0,0.603-0.075,0.835-0.225
				c0.235-0.15,0.439-0.379,0.616-0.688c0.099-0.182,0.204-0.323,0.318-0.427c0.114-0.102,0.256-0.154,0.422-0.154
				c0.198,0,0.363,0.076,0.491,0.226C307.469,481.943,307.535,482.105,307.535,482.273"/>
			<path style="fill:#2C9E7B;" d="M314.53,480.988c0,0.48-0.077,0.926-0.223,1.334c-0.155,0.406-0.37,0.757-0.656,1.047
				c-0.285,0.292-0.627,0.516-1.02,0.674c-0.399,0.154-0.844,0.232-1.337,0.232c-0.49,0-0.933-0.078-1.325-0.238
				c-0.39-0.154-0.732-0.383-1.016-0.674c-0.288-0.297-0.507-0.645-0.658-1.046c-0.145-0.401-0.22-0.845-0.22-1.329
				c0-0.49,0.078-0.938,0.225-1.346c0.151-0.407,0.368-0.755,0.649-1.043c0.282-0.287,0.62-0.508,1.02-0.666
				c0.401-0.156,0.843-0.234,1.325-0.234c0.491,0,0.936,0.078,1.337,0.238c0.397,0.156,0.738,0.383,1.026,0.674
				c0.287,0.295,0.503,0.641,0.65,1.041C314.454,480.059,314.53,480.501,314.53,480.988 M312.902,480.988
				c0-0.659-0.146-1.172-0.436-1.539c-0.289-0.37-0.681-0.554-1.172-0.554c-0.318,0-0.597,0.083-0.84,0.246
				c-0.241,0.163-0.425,0.405-0.556,0.726c-0.13,0.32-0.196,0.694-0.196,1.121c0,0.424,0.063,0.791,0.193,1.106
				c0.129,0.318,0.314,0.56,0.553,0.728c0.241,0.166,0.522,0.252,0.846,0.252c0.491,0,0.883-0.185,1.172-0.557
				C312.756,482.149,312.902,481.638,312.902,480.988"/>
			<path style="fill:#2C9E7B;" d="M320.713,481.107v2.148c0,0.342-0.076,0.594-0.23,0.766c-0.156,0.17-0.358,0.254-0.612,0.254
				c-0.245,0-0.446-0.084-0.594-0.254c-0.155-0.172-0.233-0.424-0.233-0.766v-2.575c0-0.407-0.013-0.725-0.039-0.95
				c-0.028-0.221-0.105-0.408-0.227-0.551c-0.122-0.146-0.317-0.219-0.581-0.219c-0.532,0-0.88,0.181-1.047,0.549
				c-0.169,0.359-0.254,0.881-0.254,1.563v2.184c0,0.336-0.077,0.59-0.228,0.764c-0.154,0.17-0.354,0.256-0.603,0.256
				c-0.247,0-0.447-0.086-0.603-0.256c-0.157-0.174-0.236-0.428-0.236-0.764v-4.625c0-0.305,0.07-0.537,0.21-0.693
				c0.143-0.16,0.328-0.238,0.556-0.238c0.224,0,0.407,0.078,0.558,0.223c0.146,0.148,0.221,0.353,0.221,0.613v0.152
				c0.283-0.333,0.585-0.58,0.903-0.735c0.322-0.162,0.677-0.241,1.071-0.241c0.406,0,0.757,0.082,1.047,0.244
				c0.294,0.162,0.535,0.408,0.727,0.732c0.275-0.328,0.568-0.574,0.881-0.735c0.313-0.16,0.657-0.241,1.039-0.241
				c0.441,0,0.825,0.09,1.147,0.262c0.318,0.174,0.557,0.424,0.717,0.745c0.138,0.295,0.206,0.755,0.206,1.382v3.156
				c0,0.342-0.077,0.594-0.23,0.766c-0.154,0.17-0.359,0.254-0.611,0.254c-0.248,0-0.447-0.086-0.604-0.256
				c-0.156-0.174-0.235-0.428-0.235-0.764v-2.719c0-0.348-0.015-0.625-0.044-0.834c-0.028-0.211-0.11-0.387-0.238-0.527
				c-0.133-0.143-0.332-0.215-0.596-0.215c-0.214,0-0.417,0.066-0.609,0.191c-0.191,0.124-0.342,0.297-0.45,0.507
				C320.773,479.933,320.713,480.416,320.713,481.107"/>
			<path style="fill:#2C9E7B;" d="M245.271,480.598c-0.001-0.004-0.001-0.006-0.001-0.012
				C245.27,480.592,245.27,480.594,245.271,480.598"/>
			<path style="fill:#2C9E7B;" d="M245.354,481.114h0.002c-0.031-0.147-0.055-0.294-0.074-0.438
				C245.301,480.822,245.324,480.969,245.354,481.114"/>
			<path style="fill:#2C9E7B;" d="M245.891,482.615c-0.004-0.007-0.008-0.014-0.012-0.021
				C245.883,482.602,245.887,482.608,245.891,482.615"/>
			<path style="fill:#2C9E7B;" d="M245.839,482.515c-0.014-0.027-0.027-0.056-0.041-0.083
				C245.812,482.461,245.825,482.487,245.839,482.515"/>
			<path style="fill:#2C9E7B;" d="M245.505,481.691c0.079,0.25,0.174,0.492,0.285,0.723
				C245.677,482.179,245.584,481.935,245.505,481.691L245.505,481.691z"/>
			<path style="fill:#2C9E7B;" d="M251.545,474.402c0.313,0,0.545,0.025,0.81,0.069l0.073-0.476c0,0-0.731-0.225-1.693-0.146
				l-0.076-0.258c0.3-0.063,0.524-0.328,0.524-0.645c0-0.363-0.297-0.658-0.661-0.658c-0.364,0-0.659,0.295-0.659,0.658
				c0,0.316,0.223,0.582,0.522,0.645l0.083,0.288c-1.02,0.14-1.834,0.538-1.834,0.538l0.145,0.439
				c0.617-0.205,1.153-0.33,1.64-0.383C250.895,474.424,251.253,474.402,251.545,474.402"/>
			<path style="fill:#2C9E7B;" d="M245.878,476.809l0.004-0.006c0.023-0.031,0.048-0.061,0.07-0.088l-0.195-0.141l-0.306-0.223
				c-0.017,0.023-0.497,0.464-0.875,1.276c-0.016-0.025-0.035-0.05-0.057-0.074c-0.113-0.124-0.271-0.187-0.474-0.183h-0.01
				c-0.125,0-0.21-0.042-0.267-0.092c0.057-0.071,0.09-0.16,0.09-0.258c0-0.231-0.188-0.418-0.419-0.418
				c-0.23,0-0.417,0.188-0.417,0.418c0,0.23,0.187,0.416,0.417,0.416c0.037,0,0.071-0.006,0.105-0.012
				c0.104,0.113,0.266,0.213,0.506,0.207c0.122,0,0.213,0.031,0.272,0.098c0.069,0.075,0.094,0.184,0.101,0.267
				c-0.001,0.001-0.001,0.003-0.001,0.003c-0.274,0.742-0.196,1.664-0.196,1.664l0.661,0.027c0.014-0.336,0.062-0.925,0.232-1.391
				C245.449,477.397,245.861,476.832,245.878,476.809"/>
			<path style="fill:#2C9E7B;" d="M257.295,474.953c-0.23,0-0.419,0.186-0.419,0.418c0,0.035,0.006,0.069,0.015,0.102
				c-0.113,0.104-0.214,0.268-0.21,0.506c0.001,0.123-0.029,0.212-0.097,0.273c-0.054,0.047-0.119,0.071-0.186,0.087
				c-0.492-0.688-1.098-1.106-1.098-1.106l-0.474,0.507c0.359,0.326,0.726,0.732,1.081,1.241c0.246,0.353,0.499,0.804,0.71,1.257
				l0.64-0.304c0,0-0.292-0.72-0.704-1.366c0.072-0.025,0.144-0.064,0.207-0.119c0.126-0.113,0.188-0.273,0.184-0.474
				c-0.001-0.13,0.041-0.218,0.093-0.274c0.07,0.054,0.161,0.088,0.258,0.088c0.231,0,0.418-0.187,0.418-0.416
				C257.713,475.14,257.526,474.953,257.295,474.953"/>
			<path style="fill:#2C9E7B;" d="M255.635,480.69c-0.882,0.429-2.331,0.993-4.238,1.259c-0.749,0.104-1.475,0.143-2.143,0.143
				c-0.869,0-1.638-0.064-2.227-0.139c-0.672-0.085-1.198-0.189-1.521-0.26c0.077,0.242,0.171,0.485,0.284,0.721
				c0.002,0.006,0.004,0.014,0.008,0.018c0.014,0.027,0.027,0.056,0.041,0.083c0.014,0.027,0.027,0.054,0.041,0.079
				c0.004,0.008,0.007,0.015,0.011,0.021c0.188,0.355,0.416,0.682,0.675,0.965c0.9,0.982,1.816,1.137,1.825,1.139l0.015,0.002
				l0.014,0.005c0.009,0.003,0.821,0.265,2.056,0.265c1.216,0,2.41-0.244,3.546-0.728c0.843-0.43,1.64-1.083,2.034-1.665
				c0.305-0.45,0.526-0.931,0.656-1.43c0.07-0.266,0.125-0.69,0.092-1.137C256.556,480.196,256.164,480.434,255.635,480.69"/>
			<path style="fill:#2C9E7B;" d="M246.16,477.016c-0.025,0.037-0.407,0.577-0.709,1.405c-0.227,0.62-0.216,1.522-0.216,1.534v0.001
				c0,0.212,0.012,0.423,0.035,0.63c0,0.006,0,0.008,0.001,0.012c0.003,0.026,0.007,0.053,0.01,0.079
				c0.018,0.144,0.043,0.29,0.074,0.437c0.438,0.111,3.049,0.719,5.968,0.314c1.829-0.254,3.218-0.794,4.063-1.201
				c0.699-0.34,1.15-0.646,1.324-0.772c-0.174-0.642-0.652-1.647-1.089-2.273c-1.254-1.786-2.605-2.245-3.299-2.358
				c-0.265-0.043-0.477-0.068-0.777-0.068c-0.279,0-0.626,0.021-1.089,0.07c-0.465,0.049-0.983,0.17-1.583,0.372
				c-0.843,0.28-1.604,0.724-2.204,1.276l-0.021,0.02C246.56,476.574,246.374,476.745,246.16,477.016 M253.829,476.6
				c0.601,0,1.09,0.487,1.09,1.088c0,0.6-0.489,1.087-1.09,1.087s-1.089-0.487-1.089-1.087
				C252.74,477.087,253.228,476.6,253.829,476.6 M248.679,476.557c0.973,0,1.76,0.787,1.76,1.757s-0.787,1.755-1.76,1.755
				c-0.973,0-1.761-0.785-1.761-1.755S247.706,476.557,248.679,476.557"/>
		</g>
	</g>
</g>
</svg>
